PathFileType	4	(X/Y/Z)	C:\Users\Basilio\Documents\Thesis Gigler\squatting_fais\c3dfiles\058\SLS_back_pre2\markers_experimental.trc
DataRate	CameraRate	NumFrames	NumMarkers	Units	OrigDataRate	OrigDataStartFrame	OrigNumFrames
200.000000	200.000000	4	61	mm	200.000000	1115	1487
Frame#	Time	FHD			LBHD			RBHD			C7			T10			CLAV			LSHO			LUUPA			LMUPA			LDUPA			LLEP			LMEP			LUL			LRFIN			RSHO			RUPA1			RMUPA			RDUPA			RLEP			RMEP			RRAD			RUL			RUFIN			LASI			RASI			USACR			LSACR			RSACR			LTHI1			LTHI2			LTHI3			LTHI4			LLFC			LMFC			LTIB1			LTIB2			LTIB3			LTIB4			LLMAL			LMMAL			LHEE			LMT1			LMT5			RTHI			RTHI2			RTHI3			RTHI4			RLFC			RMFC			RTIB1			RTIB2			RTIB3			RTIB4			RLMAL			RMMAL			RHEE			RMT1			RMT2			RMT5			LRAD			LMT2			
		X1	Y1	Z1	X2	Y2	Z2	X3	Y3	Z3	X4	Y4	Z4	X5	Y5	Z5	X6	Y6	Z6	X7	Y7	Z7	X8	Y8	Z8	X9	Y9	Z9	X10	Y10	Z10	X11	Y11	Z11	X12	Y12	Z12	X13	Y13	Z13	X14	Y14	Z14	X15	Y15	Z15	X16	Y16	Z16	X17	Y17	Z17	X18	Y18	Z18	X19	Y19	Z19	X20	Y20	Z20	X21	Y21	Z21	X22	Y22	Z22	X23	Y23	Z23	X24	Y24	Z24	X25	Y25	Z25	X26	Y26	Z26	X27	Y27	Z27	X28	Y28	Z28	X29	Y29	Z29	X30	Y30	Z30	X31	Y31	Z31	X32	Y32	Z32	X33	Y33	Z33	X34	Y34	Z34	X35	Y35	Z35	X36	Y36	Z36	X37	Y37	Z37	X38	Y38	Z38	X39	Y39	Z39	X40	Y40	Z40	X41	Y41	Z41	X42	Y42	Z42	X43	Y43	Z43	X44	Y44	Z44	X45	Y45	Z45	X46	Y46	Z46	X47	Y47	Z47	X48	Y48	Z48	X49	Y49	Z49	X50	Y50	Z50	X51	Y51	Z51	X52	Y52	Z52	X53	Y53	Z53	X54	Y54	Z54	X55	Y55	Z55	X56	Y56	Z56	X57	Y57	Z57	X58	Y58	Z58	X59	Y59	Z59	X60	Y60	Z60	X61	Y61	Z61	

1116	5.575	-159.7232055664063	1745.800659179688	-621.9249877929689	-317.3852844238282	1703.148559570313	-697.1908569335939	-145.4732208251953	1754.300903320313	-763.6984252929689	-338.6867980957032	1553.463500976563	-718.3083496093751	-399.423553466797	1257.002685546875	-717.8098754882814	-186.1709747314453	1488.59716796875	-698.2326049804689	-191.1243591308594	1548.928833007813	-848.3637695312502	-38.02031707763673	1487.026123046875	-953.4209594726565	-14.7151575088501	1522.486328125	-925.409118652344	31.00604820251466	1486.1142578125	-941.5589599609377	105.1280212402344	1489.071411132813	-921.1530761718752	100.9211578369141	1431.914306640625	-883.4336547851565	371.7246704101563	1523.892700195313	-880.0096435546877	463.5680236816407	1530.39599609375	-794.3467407226565	-212.5391693115235	1547.09619140625	-550.0591430664064	-62.74962997436525	1455.8115234375	-442.6636657714845	-38.7157211303711	1493.773193359375	-466.6836547851564	6.782678604125978	1463.234130859375	-444.2510986328126	74.50988769531251	1453.098388671875	-451.2505493164064	80.03816986083986	1394.28662109375	-502.642303466797	nan	nan	nan	343.0114440917969	1493.368286132813	-464.8001403808595	432.8560791015626	1513.544921875	-533.9119262695314	-261.2815856933594	1023.580322265625	-847.0148925781252	-261.0874633789063	1021.605834960938	-608.0479125976564	-434.508270263672	1144.137939453125	-715.8861694335939	-446.7451171875001	1114.236572265625	-744.2359008789064	-445.591766357422	1113.014404296875	-685.9050903320314	-307.6378784179688	760.4373168945314	-944.5869750976565	-272.4307556152344	682.2605590820314	-950.5173950195315	-227.9852600097657	681.7497558593751	-927.3215942382815	-299.7416687011719	627.9992675781251	-947.395690917969	-315.6509704589844	548.4311523437501	-939.2310180664065	-286.3801879882813	517.7573852539064	-812.882751464844	-400.6145629882814	449.6290283203126	-904.880798339844	-459.4791870117189	504.8210754394532	-934.699401855469	-452.8400268554689	460.374237060547	-927.839050292969	-528.9433593750001	435.3506469726564	-895.3525390625002	-728.8936767578126	461.7571716308595	-867.2745361328127	-695.4802856445314	415.1711730957032	-792.331481933594	-705.5195922851564	513.1115722656251	-805.6474609375002	-814.6052246093752	322.9080505371094	-778.0239868164065	-854.956970214844	384.0305786132814	-856.6235351562502	-339.0911865234376	819.1785888671877	-544.4635620117189	-290.1461181640626	773.5398559570315	-547.5194702148439	-258.0807495117188	779.441833496094	-550.4244384765626	-299.3576354980469	694.1105957031251	-572.6920166015626	-258.5759887695313	525.3082275390626	-605.5564575195314	-230.1187591552735	531.0646362304689	-735.9199218750001	-246.8116760253907	336.7756042480469	-715.8753662109376	-298.1536560058594	259.8321838378907	-656.7250366210939	-267.1333618164063	251.550033569336	-692.6994018554689	-287.7617797851563	215.7318878173829	-732.0107421875001	-367.3821105957032	116.1073837280274	-698.3115844726564	-336.5814208984376	142.9051666259766	-785.112243652344	-438.0459899902345	103.4444198608399	-764.5417480468751	-228.6834106445313	59.76202392578126	-776.0201416015627	-223.4170837402344	58.66462707519533	-723.9569702148439	-273.8552856445313	26.83469581604005	-672.5274658203126	364.5639953613282	1498.7763671875	-802.9353027343752	-835.8396606445315	324.6616210937501	-817.8315429687502	
1117	5.58	-160.124008178711	1747.535400390625	-622.0865478515626	-317.9234924316407	1704.774536132813	-697.4376220703126	-146.2499542236328	1755.772827148438	-763.9315185546876	-339.0825805664063	1554.886840820313	-718.4987792968751	-399.603973388672	1258.183349609375	-717.8608398437501	-186.603256225586	1490.009643554688	-698.2819213867189	-191.314926147461	1550.373168945313	-848.4505615234377	-38.33968734741212	1488.326171875	-953.4205322265627	-15.01341724395752	1523.796630859375	-925.4644165039065	30.43589973449708	1487.55517578125	-941.6158447265627	104.7214050292969	1490.327880859375	-921.1555175781252	100.7802124023438	1433.159057617188	-883.584411621094	371.3115539550782	1525.335693359375	-880.1452636718752	463.050262451172	1531.752319335938	-794.279479980469	-213.1198120117188	1548.511474609375	-550.2175903320314	-63.04411697387697	1457.7041015625	-442.638641357422	-39.1837501525879	1495.163452148438	-466.743865966797	6.045525074005129	1464.470458984375	-444.1553039550782	73.7545623779297	1454.453247070313	-451.3218078613282	79.71398925781251	1395.8759765625	-502.7032165527345	nan	nan	nan	342.6797180175782	1494.73974609375	-464.7368164062501	431.9502258300782	1514.55322265625	-534.2935791015626	-260.9239501953126	1025.053955078125	-846.946228027344	-261.0020446777344	1022.814392089844	-608.1822509765626	-434.4977111816407	1145.324951171875	-715.9100952148439	-446.7342224121095	1115.573364257813	-744.1584472656251	-445.3937377929689	1114.171875	-685.9310302734376	-307.0318603515626	762.0184326171876	-944.467468261719	-271.7153930664063	683.7147216796876	-950.555358886719	-227.274154663086	683.1638183593751	-927.3497314453127	-299.0443115234376	629.4418334960939	-947.3139648437502	-314.5608215332032	549.8203125000001	-939.032409667969	-285.2731933593751	519.5358276367189	-812.9097290039065	-400.0893859863282	450.6963195800782	-904.4556884765627	-458.3032226562501	505.8479919433595	-934.6416625976565	-451.7320556640626	461.6391906738282	-927.8732910156252	-527.8008422851564	436.3999633789064	-895.4433593750002	-727.8456420898439	462.4024047851564	-867.3782348632815	-694.3179931640626	416.215789794922	-792.5845947265627	-704.5811767578126	513.7044677734376	-805.8057250976565	-813.3914794921877	323.1428222656251	-778.1785278320315	-853.8518676757815	384.2485656738282	-856.8475341796877	-339.7312927246094	820.1044921875002	-544.6955566406251	-290.7822570800782	774.6511230468752	-547.7272338867189	-258.5650634765626	780.1965942382815	-550.5562744140626	-300.3871765136719	694.8575439453126	-573.0859375000001	-260.2964172363282	525.8219604492189	-605.7767944335939	-231.8322906494141	531.5200195312501	-736.2515258789064	-248.0012817382813	337.2865295410157	-716.1776733398439	-298.6901550292969	260.2509155273438	-657.0759277343751	-267.6833496093751	251.7302551269532	-692.9114379882814	-288.2976684570313	215.8400268554688	-732.3275146484376	-367.5444335937501	116.1406860351563	-698.5683593750001	-336.9144897460938	142.7687683105469	-785.640563964844	-438.0183410644532	103.3993301391602	-764.6911621093751	-228.6986999511719	59.6549758911133	-776.164978027344	-223.3441619873047	58.75216293334962	-724.0515136718751	-273.7817077636719	27.02186012268067	-672.5879516601564	363.9558715820313	1499.952758789063	-802.9224853515627	-834.5798950195315	324.9325866699219	-818.0286865234377	
1118	5.585	-160.6514129638672	1748.692993164063	-622.3836669921876	-318.4541015625001	1706.333129882813	-697.6900024414064	-146.7531280517578	1757.228759765625	-764.0201416015626	-339.7639160156251	1556.165893554688	-718.4637451171876	-399.7635192871095	1259.43505859375	-717.8268432617189	-187.0577087402344	1491.519775390625	-698.3997802734376	-191.7456665039063	1551.93701171875	-848.5811767578127	-38.81475830078126	1489.742553710938	-953.4863281250002	-15.35727024078369	1525.278076171875	-925.5164794921877	30.2733268737793	1488.796508789063	-941.6258544921877	104.3657913208008	1491.8193359375	-921.1875000000002	100.2965850830078	1434.797729492188	-883.4938964843752	370.8820190429688	1526.734619140625	-880.0865478515627	462.3313293457032	1533.298095703125	-794.323913574219	-213.5676727294922	1549.767456054688	-550.2365112304689	-63.77611923217775	1458.957397460938	-442.5928649902345	-39.73481369018555	1496.52978515625	-466.8296203613282	5.753879547119142	1466.251586914063	-444.1442260742189	73.06052398681642	1455.797241210938	-450.8284301757814	79.20800781250001	1397.290893554688	-502.5480957031251	nan	nan	nan	342.2513732910157	1496.265380859375	-464.7116088867189	431.784149169922	1516.305297851563	-533.6983642578126	-260.6913146972657	1026.693725585938	-846.892028808594	-260.6400146484376	1024.337158203125	-607.9884033203126	-434.4627990722657	1146.217041015625	-715.7584838867189	-446.6018981933595	1116.51123046875	-744.2067871093751	-445.5843200683595	1115.178955078125	-685.8565063476564	-306.3731689453126	763.3967285156251	-944.565124511719	-270.8499450683594	685.3997192382814	-950.4819335937502	-226.2883453369141	684.9481811523439	-927.303649902344	-298.2376708984376	630.8491210937501	-947.419128417969	-313.8936767578126	551.3709106445314	-939.0586547851565	-284.3744812011719	520.7803955078126	-812.9149169921877	-398.7301025390626	452.6785583496095	-905.0230102539065	-457.1447143554689	507.0992431640626	-934.8325805664065	-450.6544799804689	462.8266906738282	-927.9627685546877	-526.3784790039064	437.4008789062501	-895.683288574219	-726.7827148437501	463.1002807617189	-867.5459594726565	-693.1513671875001	416.827362060547	-792.9793090820315	-703.7443847656251	514.4912719726564	-806.0396118164065	-811.8296508789065	323.5245361328126	-778.688903808594	-852.602722167969	384.509002685547	-857.154724121094	-340.4569396972657	821.2590332031252	-544.9606933593751	-291.6526184082032	775.1438598632815	-548.0029907226564	-259.2813110351563	780.942810058594	-550.6634521484376	-301.4712219238282	695.9360351562501	-573.3467407226564	-262.1619567871094	526.4487304687501	-606.2767944335939	-233.5105285644532	532.0050048828126	-736.5350952148439	-248.9803314208985	337.7235717773438	-716.4476928710939	-299.5029907226563	260.2232055664063	-657.4273071289064	-267.8072814941407	251.7539062500001	-693.1274414062501	-289.0627441406251	215.8474578857422	-732.4824829101564	-367.5541076660157	116.3908233642578	-698.8942260742189	-337.0679626464844	142.6801910400391	-786.045349121094	-437.9485778808595	103.3107681274414	-764.8616333007814	-228.7440795898438	59.6349449157715	-776.296081542969	-223.2747497558594	58.84528732299806	-724.1513061523439	-273.7673034667969	27.16968345642091	-672.6688232421876	363.7210693359376	1501.765869140625	-802.888122558594	-833.0430297851565	325.2585754394532	-818.4881591796877	
1119	5.59	-161.3315887451172	1750.562622070313	-622.3253173828126	-319.3714294433594	1707.440673828125	-697.9245605468751	-147.2894134521485	1758.668212890625	-764.1919555664064	-340.2622375488282	1557.5908203125	-718.6397094726564	-399.9921264648439	1260.583984375	-717.7659301757814	-187.4942016601563	1493.02880859375	-698.3859252929689	-192.2296142578126	1553.29345703125	-848.6362915039065	-39.09446334838868	1491.0322265625	-953.5679931640627	-15.9147481918335	1526.661376953125	-925.6383056640627	29.71861839294434	1490.327392578125	-941.629089355469	103.9427719116211	1493.18359375	-921.2257080078127	99.93775939941409	1436.169799804688	-883.622253417969	370.4741821289063	1528.197631835938	-880.1414184570315	461.8422851562501	1534.887939453125	-794.196228027344	-214.317855834961	1551.312622070313	-550.4479370117189	-64.14500427246095	1460.834350585938	-442.6424560546876	-40.34415817260743	1498.368286132813	-466.6007690429689	5.165616512298585	1467.611450195313	-444.0884399414064	72.67344665527345	1457.345336914063	-451.1242980957032	78.45938110351564	1398.712890625	-502.5015563964845	nan	nan	nan	341.7274475097657	1497.694091796875	-464.5260620117189	430.9895324707032	1517.091796875	-534.1046752929689	-260.5939331054688	1027.986206054688	-846.8946533203127	-260.4830017089844	1025.480834960938	-608.1213989257814	-434.3863830566407	1147.341552734375	-715.8245239257814	-446.6115722656251	1117.881103515625	-744.1621093750001	-445.3394775390626	1116.351196289063	-685.7836303710939	-305.7330322265626	764.9245605468751	-944.550720214844	-270.4608459472657	686.5377807617189	-949.9780883789065	-225.4262390136719	686.4577636718751	-927.2410888671877	-297.1374511718751	632.3791503906251	-947.344421386719	-312.8211059570313	552.8020019531251	-939.130798339844	-283.4536132812501	522.2794189453126	-813.0584106445315	-397.3306884765626	453.2081909179689	-905.0876464843752	-456.244842529297	508.2379760742189	-934.8873291015627	-449.7198486328126	463.9424438476564	-927.987976074219	-525.3063964843751	438.2500610351564	-895.7956542968752	-725.8133544921876	463.673309326172	-867.7913208007815	-691.9463500976564	417.4143066406251	-793.2781372070315	-702.6213378906251	515.5250244140626	-805.975524902344	-810.5628662109377	323.9869995117188	-778.8411254882815	-851.2979736328127	385.028289794922	-857.5671386718752	-340.9004821777344	822.446960449219	-545.2109985351564	-292.5881347656251	776.297790527344	-548.2221069335939	-260.2558593750001	781.4016723632815	-550.8212890625001	-302.6883239746094	696.6735839843751	-573.5317993164064	-263.7702636718751	527.0264282226564	-606.4935302734376	-235.1262664794922	532.6363525390626	-736.9757690429689	-250.0101013183594	337.9096374511719	-716.7793579101564	-299.8887329101563	260.3628234863282	-657.8334960937501	-268.5118408203126	252.1740112304688	-693.5635986328126	-289.5270080566407	216.1528930664063	-732.8024902343751	-367.6890258789063	116.3621444702149	-699.2488403320314	-337.1971740722657	142.6764373779297	-786.3391113281252	-437.9319763183595	103.2309036254883	-765.0347290039064	-228.6864318847657	59.57563781738283	-776.4477539062502	-223.2207641601563	58.88608169555665	-724.2332153320314	-273.6636657714844	27.39096450805665	-672.7091064453126	363.3050231933594	1502.992065429688	-802.897644042969	-831.6116943359377	325.8462524414063	-818.7769775390627	
